extratorrent.com 
http://extratorrent.com/torrent/2186384/

Legion - 2010 - R5 - (COMPLETE ENGLISH RAW LINE AUDIO) - Xvid - Ghostman + Greenfrogr

info
Format : AVI
Format/Info : Audio Video Interleave
File size : 701 MiB
Duration : 1h 35mn
Overall bit rate : 1 021 Kbps
Writing application : VirtualDubMod 1.5.10.3 | www.virtualdub-fr.org || (build 2550/release)
Writing library : VirtualDubMod build 2550/release



Video
ID : 0
Format : MPEG-4 Visual
Format profile : AdvancedSimple@L5
Format settings, BVOP : Yes
Format settings, QPel : No
Format settings, GMC : No warppoints
Format settings, Matrix : Default (H.263)
Muxing mode : Packed bitstream
Codec ID : XVID
Codec ID/Hint : XviD
Duration : 1h 35mn
Bit rate : 795 Kbps
Width : 672 pixels
Height : 288 pixels
Display aspect ratio : 2.35:1
Frame rate : 25.000 fps
Resolution : 24 bits
Colorimetry : 4:2:0
Scan type : Progressive
Bits/(Pixel*Frame) : 0.164
Stream size : 545 MiB (78%)
Writing library : XviD 1.2.1 (UTC 2008-12-04)

Audio
ID : 1
Format : MPEG Audio
Format version : Version 1
Format profile : Layer 3
Codec ID : 55
Codec ID/Hint : MP3
Duration : 1h 35mn
Bit rate mode : Variable
Bit rate : 214 Kbps
Channel(s) : 2 channels
Sampling rate : 48.0 KHz
Resolution : 16 bits
Stream size : 147 MiB (21%)
Alignment : Aligned on interleaves
Interleave, duration : 24 ms (0.60 video frame)
Interleave, preload duration : 559 ms




plot
An out-of-the-way diner becomes the unlikely battleground for the survival of the human race. When God loses faith in humankind...




cast

Paul Bettany ... Michael

Lucas Black ... Jeep Hanson

Tyrese Gibson ... Kyle Williams

Adrianne Palicki ... Charlie

Charles S. Dutton ... Percy Walker

Kevin Durand ... Gabriel

Jon Tenney ... Howard Anderson

Willa Holland ... Audrey Anderson

Kate Walsh ... Sandra Anderson

Dennis Quaid ... Bob Hanson
Jeanette Miller ... Gladys Foster
Cameron Harlow ... Minivan Boy

Doug Jones ... Ice Cream Man

Josh Stamberg ... Burton

Yancey Arias ... Estevez